<svg width="300" height="300" viewBox="0 0 300 300" fill="none" xmlns="http://www.w3.org/2000/svg">
<circle cx="150" cy="150" r="145" stroke="url(#paint0_linear_351_2)" stroke-width="10"/>
<mask id="path-2-outside-1_351_2" maskUnits="userSpaceOnUse" x="74" y="131" width="154" height="39" fill="black">
<rect fill="white" x="74" y="131" width="154" height="39"/>
<path d="M76.224 167V133.545H80.2751V150.142H80.6672L95.6956 133.545H100.988L86.9399 148.639L100.988 167H96.0876L84.4569 151.449L80.2751 156.153V167H76.224ZM107.604 167H103.357L115.641 133.545H119.823L132.107 167H127.86L117.862 138.838H117.601L107.604 167ZM109.172 153.932H126.291V157.526H109.172V153.932ZM137.318 167V133.545H141.369V150.142H141.761L156.789 133.545H162.082L148.034 148.639L162.082 167H157.181L145.551 151.449L141.369 156.153V167H137.318ZM168.698 167H164.451L176.735 133.545H180.916L193.201 167H188.953L178.956 138.838H178.695L168.698 167ZM170.266 153.932H187.385V157.526H170.266V153.932ZM225.066 150.273C225.066 153.801 224.429 156.85 223.155 159.42C221.881 161.991 220.133 163.973 217.912 165.366C215.69 166.76 213.153 167.457 210.299 167.457C207.446 167.457 204.909 166.76 202.687 165.366C200.466 163.973 198.718 161.991 197.444 159.42C196.169 156.85 195.532 153.801 195.532 150.273C195.532 146.744 196.169 143.695 197.444 141.125C198.718 138.555 200.466 136.573 202.687 135.179C204.909 133.785 207.446 133.088 210.299 133.088C213.153 133.088 215.69 133.785 217.912 135.179C220.133 136.573 221.881 138.555 223.155 141.125C224.429 143.695 225.066 146.744 225.066 150.273ZM221.146 150.273C221.146 147.376 220.661 144.931 219.692 142.938C218.734 140.945 217.432 139.437 215.788 138.413C214.155 137.39 212.325 136.878 210.299 136.878C208.274 136.878 206.439 137.39 204.794 138.413C203.161 139.437 201.86 140.945 200.89 142.938C199.932 144.931 199.453 147.376 199.453 150.273C199.453 153.17 199.932 155.614 200.89 157.607C201.86 159.6 203.161 161.108 204.794 162.132C206.439 163.156 208.274 163.668 210.299 163.668C212.325 163.668 214.155 163.156 215.788 162.132C217.432 161.108 218.734 159.6 219.692 157.607C220.661 155.614 221.146 153.17 221.146 150.273Z"/>
</mask>
<path d="M76.224 167V133.545H80.2751V150.142H80.6672L95.6956 133.545H100.988L86.9399 148.639L100.988 167H96.0876L84.4569 151.449L80.2751 156.153V167H76.224ZM107.604 167H103.357L115.641 133.545H119.823L132.107 167H127.86L117.862 138.838H117.601L107.604 167ZM109.172 153.932H126.291V157.526H109.172V153.932ZM137.318 167V133.545H141.369V150.142H141.761L156.789 133.545H162.082L148.034 148.639L162.082 167H157.181L145.551 151.449L141.369 156.153V167H137.318ZM168.698 167H164.451L176.735 133.545H180.916L193.201 167H188.953L178.956 138.838H178.695L168.698 167ZM170.266 153.932H187.385V157.526H170.266V153.932ZM225.066 150.273C225.066 153.801 224.429 156.85 223.155 159.42C221.881 161.991 220.133 163.973 217.912 165.366C215.69 166.76 213.153 167.457 210.299 167.457C207.446 167.457 204.909 166.76 202.687 165.366C200.466 163.973 198.718 161.991 197.444 159.42C196.169 156.85 195.532 153.801 195.532 150.273C195.532 146.744 196.169 143.695 197.444 141.125C198.718 138.555 200.466 136.573 202.687 135.179C204.909 133.785 207.446 133.088 210.299 133.088C213.153 133.088 215.69 133.785 217.912 135.179C220.133 136.573 221.881 138.555 223.155 141.125C224.429 143.695 225.066 146.744 225.066 150.273ZM221.146 150.273C221.146 147.376 220.661 144.931 219.692 142.938C218.734 140.945 217.432 139.437 215.788 138.413C214.155 137.39 212.325 136.878 210.299 136.878C208.274 136.878 206.439 137.39 204.794 138.413C203.161 139.437 201.86 140.945 200.89 142.938C199.932 144.931 199.453 147.376 199.453 150.273C199.453 153.17 199.932 155.614 200.89 157.607C201.86 159.6 203.161 161.108 204.794 162.132C206.439 163.156 208.274 163.668 210.299 163.668C212.325 163.668 214.155 163.156 215.788 162.132C217.432 161.108 218.734 159.6 219.692 157.607C220.661 155.614 221.146 153.17 221.146 150.273Z" fill="white"/>
<path d="M76.224 167H74.224V169H76.224V167ZM76.224 133.545V131.545H74.224V133.545H76.224ZM80.2751 133.545H82.2751V131.545H80.2751V133.545ZM80.2751 150.142H78.2751V152.142H80.2751V150.142ZM80.6672 150.142V152.142H81.5543L82.1497 151.484L80.6672 150.142ZM95.6956 133.545V131.545H94.8085L94.2131 132.203L95.6956 133.545ZM100.988 133.545L102.452 134.908L105.582 131.545H100.988V133.545ZM86.9399 148.639L85.4759 147.277L84.3251 148.513L85.3515 149.855L86.9399 148.639ZM100.988 167V169H105.037L102.577 165.785L100.988 167ZM96.0876 167L94.486 168.198L95.0859 169H96.0876V167ZM84.4569 151.449L86.0586 150.251L84.5905 148.288L82.9621 150.12L84.4569 151.449ZM80.2751 156.153L78.7803 154.825L78.2751 155.393V156.153H80.2751ZM80.2751 167V169H82.2751V167H80.2751ZM78.224 167V133.545H74.224V167H78.224ZM76.224 135.545H80.2751V131.545H76.224V135.545ZM78.2751 133.545V150.142H82.2751V133.545H78.2751ZM80.2751 152.142H80.6672V148.142H80.2751V152.142ZM82.1497 151.484L97.1781 134.888L94.2131 132.203L79.1847 148.8L82.1497 151.484ZM95.6956 135.545H100.988V131.545H95.6956V135.545ZM99.5242 132.183L85.4759 147.277L88.4039 150.002L102.452 134.908L99.5242 132.183ZM85.3515 149.855L99.3998 168.215L102.577 165.785L88.5283 147.424L85.3515 149.855ZM100.988 165H96.0876V169H100.988V165ZM97.6892 165.802L86.0586 150.251L82.8553 152.647L94.486 168.198L97.6892 165.802ZM82.9621 150.12L78.7803 154.825L81.7699 157.482L85.9518 152.778L82.9621 150.12ZM78.2751 156.153V167H82.2751V156.153H78.2751ZM80.2751 165H76.224V169H80.2751V165ZM107.604 167V169H109.016L109.489 167.669L107.604 167ZM103.357 167L101.479 166.311L100.492 169H103.357V167ZM115.641 133.545V131.545H114.245L113.763 132.856L115.641 133.545ZM119.823 133.545L121.7 132.856L121.219 131.545H119.823V133.545ZM132.107 167V169H134.972L133.984 166.311L132.107 167ZM127.86 167L125.975 167.669L126.447 169H127.86V167ZM117.862 138.838L119.747 138.169L119.275 136.838H117.862V138.838ZM117.601 138.838V136.838H116.189L115.716 138.169L117.601 138.838ZM109.172 153.932V151.932H107.172V153.932H109.172ZM126.291 153.932H128.291V151.932H126.291V153.932ZM126.291 157.526V159.526H128.291V157.526H126.291ZM109.172 157.526H107.172V159.526H109.172V157.526ZM107.604 165H103.357V169H107.604V165ZM105.234 167.689L117.518 134.235L113.763 132.856L101.479 166.311L105.234 167.689ZM115.641 135.545H119.823V131.545H115.641V135.545ZM117.945 134.235L130.229 167.689L133.984 166.311L121.7 132.856L117.945 134.235ZM132.107 165H127.86V169H132.107V165ZM129.744 166.331L119.747 138.169L115.978 139.507L125.975 167.669L129.744 166.331ZM117.862 136.838H117.601V140.838H117.862V136.838ZM115.716 138.169L105.719 166.331L109.489 167.669L119.486 139.507L115.716 138.169ZM109.172 155.932H126.291V151.932H109.172V155.932ZM124.291 153.932V157.526H128.291V153.932H124.291ZM126.291 155.526H109.172V159.526H126.291V155.526ZM111.172 157.526V153.932H107.172V157.526H111.172ZM137.318 167H135.318V169H137.318V167ZM137.318 133.545V131.545H135.318V133.545H137.318ZM141.369 133.545H143.369V131.545H141.369V133.545ZM141.369 150.142H139.369V152.142H141.369V150.142ZM141.761 150.142V152.142H142.648L143.243 151.484L141.761 150.142ZM156.789 133.545V131.545H155.902L155.307 132.203L156.789 133.545ZM162.082 133.545L163.546 134.908L166.676 131.545H162.082V133.545ZM148.034 148.639L146.57 147.277L145.419 148.513L146.445 149.855L148.034 148.639ZM162.082 167V169H166.13L163.67 165.785L162.082 167ZM157.181 167L155.58 168.198L156.18 169H157.181V167ZM145.551 151.449L147.152 150.251L145.684 148.288L144.056 150.12L145.551 151.449ZM141.369 156.153L139.874 154.825L139.369 155.393V156.153H141.369ZM141.369 167V169H143.369V167H141.369ZM139.318 167V133.545H135.318V167H139.318ZM137.318 135.545H141.369V131.545H137.318V135.545ZM139.369 133.545V150.142H143.369V133.545H139.369ZM141.369 152.142H141.761V148.142H141.369V152.142ZM143.243 151.484L158.272 134.888L155.307 132.203L140.278 148.8L143.243 151.484ZM156.789 135.545H162.082V131.545H156.789V135.545ZM160.618 132.183L146.57 147.277L149.498 150.002L163.546 134.908L160.618 132.183ZM146.445 149.855L160.494 168.215L163.67 165.785L149.622 147.424L146.445 149.855ZM162.082 165H157.181V169H162.082V165ZM158.783 165.802L147.152 150.251L143.949 152.647L155.58 168.198L158.783 165.802ZM144.056 150.12L139.874 154.825L142.864 157.482L147.046 152.778L144.056 150.12ZM139.369 156.153V167H143.369V156.153H139.369ZM141.369 165H137.318V169H141.369V165ZM168.698 167V169H170.11L170.582 167.669L168.698 167ZM164.451 167L162.573 166.311L161.586 169H164.451V167ZM176.735 133.545V131.545H175.338L174.857 132.856L176.735 133.545ZM180.916 133.545L182.794 132.856L182.313 131.545H180.916V133.545ZM193.201 167V169H196.065L195.078 166.311L193.201 167ZM188.953 167L187.069 167.669L187.541 169H188.953V167ZM178.956 138.838L180.841 138.169L180.369 136.838H178.956V138.838ZM178.695 138.838V136.838H177.283L176.81 138.169L178.695 138.838ZM170.266 153.932V151.932H168.266V153.932H170.266ZM187.385 153.932H189.385V151.932H187.385V153.932ZM187.385 157.526V159.526H189.385V157.526H187.385ZM170.266 157.526H168.266V159.526H170.266V157.526ZM168.698 165H164.451V169H168.698V165ZM166.328 167.689L178.612 134.235L174.857 132.856L162.573 166.311L166.328 167.689ZM176.735 135.545H180.916V131.545H176.735V135.545ZM179.039 134.235L191.323 167.689L195.078 166.311L182.794 132.856L179.039 134.235ZM193.201 165H188.953V169H193.201V165ZM190.838 166.331L180.841 138.169L177.071 139.507L187.069 167.669L190.838 166.331ZM178.956 136.838H178.695V140.838H178.956V136.838ZM176.81 138.169L166.813 166.331L170.582 167.669L180.58 139.507L176.81 138.169ZM170.266 155.932H187.385V151.932H170.266V155.932ZM185.385 153.932V157.526H189.385V153.932H185.385ZM187.385 155.526H170.266V159.526H187.385V155.526ZM172.266 157.526V153.932H168.266V157.526H172.266ZM223.155 159.42L221.363 158.532L221.363 158.532L223.155 159.42ZM217.912 165.366L218.975 167.061L218.975 167.061L217.912 165.366ZM202.687 165.366L201.624 167.061L201.624 167.061L202.687 165.366ZM197.444 159.42L199.236 158.532L199.236 158.532L197.444 159.42ZM197.444 141.125L195.652 140.237L197.444 141.125ZM217.912 135.179L218.975 133.485L218.975 133.485L217.912 135.179ZM223.155 141.125L221.363 142.013L221.363 142.013L223.155 141.125ZM219.692 142.938L217.89 143.805L217.894 143.813L219.692 142.938ZM215.788 138.413L214.726 140.108L214.731 140.111L215.788 138.413ZM204.794 138.413L203.738 136.715L203.732 136.719L204.794 138.413ZM200.89 142.938L199.092 142.063L199.088 142.071L200.89 142.938ZM200.89 157.607L199.088 158.474L199.092 158.482L200.89 157.607ZM204.794 162.132L203.732 163.827L203.738 163.83L204.794 162.132ZM215.788 162.132L214.731 160.434L214.726 160.437L215.788 162.132ZM219.692 157.607L217.894 156.733L217.89 156.741L219.692 157.607ZM223.066 150.273C223.066 153.563 222.473 156.294 221.363 158.532L224.947 160.309C226.386 157.406 227.066 154.04 227.066 150.273H223.066ZM221.363 158.532C220.237 160.804 218.729 162.493 216.849 163.672L218.975 167.061C221.538 165.452 223.525 163.178 224.947 160.309L221.363 158.532ZM216.849 163.672C214.973 164.849 212.811 165.457 210.299 165.457V169.457C213.494 169.457 216.407 168.672 218.975 167.061L216.849 163.672ZM210.299 165.457C207.788 165.457 205.625 164.849 203.75 163.672L201.624 167.061C204.192 168.672 207.105 169.457 210.299 169.457V165.457ZM203.75 163.672C201.87 162.493 200.362 160.804 199.236 158.532L195.652 160.309C197.074 163.178 199.061 165.452 201.624 167.061L203.75 163.672ZM199.236 158.532C198.126 156.294 197.532 153.563 197.532 150.273H193.532C193.532 154.04 194.213 157.406 195.652 160.309L199.236 158.532ZM197.532 150.273C197.532 146.983 198.126 144.251 199.236 142.013L195.652 140.237C194.213 143.139 193.532 146.506 193.532 150.273H197.532ZM199.236 142.013C200.362 139.742 201.87 138.053 203.75 136.873L201.624 133.485C199.061 135.093 197.074 137.368 195.652 140.237L199.236 142.013ZM203.75 136.873C205.625 135.697 207.788 135.088 210.299 135.088V131.088C207.105 131.088 204.192 131.874 201.624 133.485L203.75 136.873ZM210.299 135.088C212.811 135.088 214.973 135.697 216.849 136.873L218.975 133.485C216.407 131.874 213.494 131.088 210.299 131.088V135.088ZM216.849 136.873C218.729 138.053 220.237 139.742 221.363 142.013L224.947 140.237C223.525 137.368 221.538 135.093 218.975 133.485L216.849 136.873ZM221.363 142.013C222.473 144.251 223.066 146.983 223.066 150.273H227.066C227.066 146.506 226.386 143.139 224.947 140.237L221.363 142.013ZM223.146 150.273C223.146 147.162 222.627 144.399 221.491 142.063L217.894 143.813C218.696 145.463 219.146 147.59 219.146 150.273H223.146ZM221.495 142.071C220.396 139.786 218.856 137.967 216.845 136.715L214.731 140.111C216.009 140.907 217.072 142.105 217.89 143.805L221.495 142.071ZM216.85 136.719C214.882 135.485 212.681 134.878 210.299 134.878V138.878C211.969 138.878 213.427 139.294 214.726 140.108L216.85 136.719ZM210.299 134.878C207.918 134.878 205.714 135.485 203.738 136.715L205.851 140.111C207.164 139.294 208.63 138.878 210.299 138.878V134.878ZM203.732 136.719C201.736 137.97 200.2 139.785 199.092 142.063L202.689 143.813C203.519 142.105 204.586 140.904 205.857 140.108L203.732 136.719ZM199.088 142.071C197.966 144.405 197.453 147.165 197.453 150.273H201.453C201.453 147.587 201.898 145.457 202.693 143.805L199.088 142.071ZM197.453 150.273C197.453 153.38 197.966 156.14 199.088 158.474L202.693 156.741C201.898 155.088 201.453 152.959 201.453 150.273H197.453ZM199.092 158.482C200.2 160.76 201.736 162.576 203.732 163.827L205.857 160.437C204.586 159.641 203.519 158.44 202.689 156.733L199.092 158.482ZM203.738 163.83C205.714 165.06 207.918 165.668 210.299 165.668V161.668C208.63 161.668 207.164 161.251 205.851 160.434L203.738 163.83ZM210.299 165.668C212.681 165.668 214.882 165.06 216.85 163.827L214.726 160.437C213.427 161.251 211.969 161.668 210.299 161.668V165.668ZM216.845 163.83C218.856 162.578 220.396 160.759 221.495 158.474L217.89 156.741C217.072 158.441 216.009 159.638 214.731 160.434L216.845 163.83ZM221.491 158.482C222.627 156.146 223.146 153.383 223.146 150.273H219.146C219.146 152.956 218.696 155.083 217.894 156.733L221.491 158.482Z" fill="white" mask="url(#path-2-outside-1_351_2)"/>
<defs>
<linearGradient id="paint0_linear_351_2" x1="150" y1="0" x2="150" y2="300" gradientUnits="userSpaceOnUse">
<stop stop-color="#4DC0C8"/>
<stop offset="0.473958" stop-color="#28D7E2" stop-opacity="0"/>
<stop offset="1" stop-color="#00F0FF"/>
</linearGradient>
</defs>
</svg>
